<?xml version="1.0" encoding="UTF-8"?>
<svg id="Layer_1" data-name="Layer 1" xmlns="http://www.w3.org/2000/svg" viewBox="0 0 55.85 20.69">
  <path d="M52.38,20.69H3.47c-1.95,0-3.47-.9-3.47-2.04V2.04C0,.9,1.53,0,3.47,0h48.9c1.95,0,3.47.9,3.47,2.04v16.6c0,1.15-1.53,2.04-3.47,2.04ZM3.47.5C1.86.5.5,1.21.5,2.04v16.6c0,.84,1.36,1.54,2.97,1.54h48.9c1.61,0,2.97-.71,2.97-1.54V2.04c0-.84-1.36-1.54-2.97-1.54H3.47Z"/>
  <g>
    <path d="M7.45,5.45h1.64l3.39,8.8h-1.65l-.83-2.33h-3.51l-.83,2.33h-1.59l3.38-8.8ZM6.91,10.75h2.69l-1.32-3.79h-.04l-1.33,3.79Z"/>
    <path d="M13.16,5.45h1.41v3.26h.02c.39-.62,1.17-1,1.9-1,2.01,0,2.98,1.52,2.98,3.39,0,1.73-.88,3.33-2.75,3.33-.86,0-1.79-.21-2.21-1.05h-.02v.88h-1.33V5.45ZM16.31,8.82c-1.18,0-1.79.89-1.79,2.26,0,1.28.65,2.24,1.79,2.24,1.28,0,1.76-1.13,1.76-2.24s-.6-2.26-1.76-2.26Z"/>
    <path d="M20.36,11.06c0-1.94,1.18-3.35,3.22-3.35s3.22,1.42,3.22,3.35-1.18,3.37-3.22,3.37-3.22-1.41-3.22-3.37ZM25.39,11.06c0-1.1-.55-2.24-1.81-2.24s-1.81,1.15-1.81,2.24.55,2.26,1.81,2.26,1.81-1.15,1.81-2.26Z"/>
    <path d="M33.57,14.25h-1.38v-.89h-.02c-.35.64-1.11,1.06-1.81,1.06-1.68,0-2.38-.83-2.38-2.5v-4.04h1.41v3.91c0,1.12.44,1.53,1.22,1.53,1.17,0,1.57-.75,1.57-1.74v-3.7h1.41v6.37Z"/>
    <path d="M34.41,7.88h1.06v-1.91h1.41v1.91h1.27v1.05h-1.27v3.4c0,.58.05.88.68.88.2,0,.39,0,.59-.05v1.08c-.31.04-.6.07-.91.07-1.48,0-1.73-.57-1.76-1.63v-3.76h-1.06v-1.05Z"/>
  </g>
  <g>
    <rect x="42.02" y="6.78" width="8.83" height=".75"/>
    <rect x="42.02" y="9.97" width="8.83" height=".75"/>
    <rect x="42.02" y="13.16" width="8.83" height=".75"/>
  </g>
</svg>