<?xml version="1.0" encoding="UTF-8"?>
<svg id="Layer_1" data-name="Layer 1" xmlns="http://www.w3.org/2000/svg" viewBox="0 0 73.88 20.69">
  <path d="M69.35,20.69H4.52c-2.54,0-4.52-.9-4.52-2.04V2.04C0,.9,1.99,0,4.52,0h64.83c2.54,0,4.52.9,4.52,2.04v16.6c0,1.15-1.99,2.04-4.52,2.04ZM4.52.5C2.15.5.5,1.31.5,2.04v16.6c0,.73,1.65,1.54,4.02,1.54h64.83c2.37,0,4.02-.81,4.02-1.54V2.04c0-.73-1.65-1.54-4.02-1.54H4.52Z"/>
  <g>
    <g>
      <path d="M11.04,8.25c-.26-1.02-.91-1.75-2.19-1.75-1.89,0-2.68,1.66-2.68,3.35s.79,3.35,2.68,3.35c1.38,0,2.11-1.02,2.24-2.31h1.5c-.14,2.11-1.62,3.56-3.75,3.56-2.63,0-4.22-2.08-4.22-4.61s1.59-4.61,4.22-4.61c2,0,3.54,1.11,3.74,3.01h-1.54Z"/>
      <path d="M13.51,11.06c0-1.94,1.18-3.35,3.22-3.35s3.22,1.42,3.22,3.35-1.18,3.37-3.22,3.37-3.22-1.41-3.22-3.37ZM18.54,11.06c0-1.1-.56-2.24-1.81-2.24s-1.81,1.15-1.81,2.24.55,2.26,1.81,2.26,1.81-1.15,1.81-2.26Z"/>
      <path d="M21.12,7.88h1.33v.94l.02.02c.43-.7,1.15-1.13,1.99-1.13,1.39,0,2.26.73,2.26,2.17v4.38h-1.41v-4.01c-.04-1-.41-1.43-1.25-1.43-.94,0-1.54.74-1.54,1.68v3.76h-1.41v-6.37Z"/>
      <path d="M27.55,7.88h1.06v-1.91h1.41v1.91h1.27v1.05h-1.27v3.4c0,.58.05.88.68.88.2,0,.39,0,.59-.05v1.08c-.31.04-.6.07-.91.07-1.48,0-1.73-.57-1.76-1.63v-3.76h-1.06v-1.05Z"/>
      <path d="M37.64,12.83c0,.34.07.48.33.48h.15c.06,0,.12-.01.2-.02v.97c-.21.07-.65.16-.89.16-.58,0-.97-.2-1.09-.78-.55.54-1.45.78-2.21.78-1.15,0-2.18-.62-2.18-1.86,0-1.59,1.27-1.85,2.45-1.99,1.02-.2,1.91-.06,1.91-.9,0-.74-.76-.86-1.32-.86-.79,0-1.34.32-1.41,1.01h-1.41c.1-1.64,1.48-2.12,2.9-2.12,1.25,0,2.55.51,2.55,1.85v3.28ZM36.23,11.06c-.43.28-1.1.27-1.73.38-.6.1-1.15.32-1.15,1.06,0,.64.8.81,1.29.81.62,0,1.58-.32,1.58-1.21v-1.05Z"/>
      <path d="M43.46,10.01c-.11-.79-.67-1.2-1.46-1.2-.73,0-1.75.39-1.75,2.32,0,1.06.47,2.18,1.69,2.18.83,0,1.38-.53,1.52-1.46h1.41c-.26,1.67-1.28,2.56-2.92,2.56-2,0-3.09-1.42-3.09-3.29s1.05-3.43,3.14-3.43c1.48,0,2.74.74,2.87,2.31h-1.41Z"/>
      <path d="M45.37,7.88h1.06v-1.91h1.41v1.91h1.27v1.05h-1.27v3.4c0,.58.05.88.68.88.2,0,.39,0,.59-.05v1.08c-.31.04-.6.07-.91.07-1.48,0-1.73-.57-1.76-1.63v-3.76h-1.06v-1.05Z"/>
    </g>
    <g>
      <path d="M68.7,15.68h-15.5c-.77,0-1.4-.56-1.4-1.26V6.26c0-.69.63-1.26,1.4-1.26h15.5c.77,0,1.4.56,1.4,1.26v8.16c0,.69-.63,1.26-1.4,1.26ZM53.19,5.76c-.36,0-.65.23-.65.51v8.16c0,.27.3.51.65.51h15.5c.35,0,.65-.23.65-.51V6.26c0-.28-.29-.51-.65-.51h-15.5Z"/>
      <path d="M60.94,12.63c-.34,0-.68-.11-.96-.32l-7.83-5.83c-.26-.18-.4-.5-.34-.81.07-.37.42-.65.84-.67h16.62c.36,0,.67.22.78.56.11.33,0,.68-.29.89l-7.87,5.86c-.28.21-.62.32-.96.32ZM52.66,5.76c-.06,0-.11.05-.12.06l7.88,5.89c.3.23.72.23,1.02,0l7.87-5.86s.03-.03.02-.05l-16.68-.04Z"/>
    </g>
  </g>
</svg>